<svg width="82" height="85" viewBox="0 0 82 85" fill="none" xmlns="http://www.w3.org/2000/svg">
<g opacity="0.8">
<path fill-rule="evenodd" clip-rule="evenodd" d="M56.3944 13.7477L24.4359 14.1107L9.15961 40.5699L23.7979 70.1752L56.6458 70.3215L72.9359 42.1061L56.3944 13.7477ZM57.5202 41.5413L40.4023 41.4651L32.4524 27.3271L49.066 27.0477L57.5202 41.5413ZM48.4883 26.0572L31.8953 26.3364L25.5758 15.0978L41.9869 14.9114L48.4883 26.0572ZM43.137 14.8983L49.6347 26.038L62.2815 25.8252L55.8238 14.7543L43.137 14.8983ZM62.8593 26.8156L50.2125 27.0284L58.6809 41.5465L71.4851 41.6035L62.8593 26.8156Z" fill="url(#paint0_linear_87_1119)"/>
<path d="M63.5677 56.3323L71.494 42.6036L58.8249 42.5471M62.9874 57.3375L56.0699 69.3189L43.4008 69.2625M42.249 69.2574L24.9729 69.1804L31.6493 57.6166M30.7859 57.112L24.1432 68.6175L16.4192 52.9959M31.3719 56.0971L39.5336 41.9605L31.3159 27.3463L31.2272 27.3478M15.8865 51.9186L10.2932 40.6064L16.2137 30.3518M16.7997 29.3369L24.7207 15.6173L30.7588 26.3555M32.2297 56.6114L40.397 42.4651L57.6731 42.542M56.3944 13.7477L24.4359 14.1107L9.15961 40.5699L23.7979 70.1752L56.6458 70.3215L72.9359 42.1061L56.3944 13.7477ZM40.4023 41.4651L57.5202 41.5413L49.066 27.0477L32.4524 27.3271L40.4023 41.4651ZM31.8953 26.3364L48.4883 26.0572L41.9869 14.9114L25.5758 15.0978L31.8953 26.3364ZM49.6347 26.038L43.137 14.8983L55.8238 14.7543L62.2815 25.8252L49.6347 26.038ZM50.2125 27.0284L62.8593 26.8156L71.4851 41.6035L58.6809 41.5465L50.2125 27.0284Z" stroke="black" stroke-width="0.2"/>
</g>
<path d="M16.6594 43.9008L23.5781 31.3859L26.2509 35.8231C28.284 39.198 28.2941 43.5114 26.0685 47.5371C23.843 51.5629 21.3653 51.7129 19.3323 48.3379L16.6594 43.9008ZM23.7327 34.3281L18.3623 44.0424L20.1064 46.9377C21.9846 50.0556 23.785 48.4457 25.1397 45.9953C26.4944 43.5448 27.3551 40.3413 25.4768 37.2233L23.7327 34.3281Z" fill="#EEEEEE"/>
<path d="M48.3021 49.8303L50.102 49.8141L46.332 56.4821L57.2818 49.7494L59.4817 49.7295L50.9384 54.951L52.8436 62.1741L50.7437 62.193L49.1282 56.0412L45.2394 58.4146L43.064 62.2623L41.2641 62.2785L48.3021 49.8303Z" fill="#EEEEEE"/>
<defs>
<linearGradient id="paint0_linear_87_1119" x1="5.49951" y1="-22.5" x2="56.0801" y2="72" gradientUnits="userSpaceOnUse">
<stop stop-color="white" stop-opacity="0"/>
<stop offset="1" stop-color="#0057FF"/>
</linearGradient>
</defs>
</svg>
