<svg width="48" height="48" viewBox="0 0 48 48" fill="none" xmlns="http://www.w3.org/2000/svg">
<rect x="47.4" y="0.6" width="46.8" height="46.8" rx="23.4" transform="rotate(90 47.4 0.6)" stroke="#0F0F0F" stroke-width="1.2"/>
<path d="M33.3536 24.354C33.5488 24.1588 33.5488 23.8422 33.3536 23.6469L30.1716 20.465C29.9763 20.2697 29.6597 20.2697 29.4645 20.465C29.2692 20.6602 29.2692 20.9768 29.4645 21.1721L32.2929 24.0005L29.4645 26.8289C29.2692 27.0242 29.2692 27.3408 29.4645 27.536C29.6597 27.7313 29.9763 27.7313 30.1716 27.536L33.3536 24.354ZM15 24.5005L33 24.5005L33 23.5005L15 23.5005L15 24.5005Z" fill="#0F0F0F"/>
</svg>
