<svg width="20" height="21" viewBox="0 0 20 21" fill="none" xmlns="http://www.w3.org/2000/svg">
<g clip-path="url(#clip0_87_1099)">
<path d="M18.333 10.5002H19.1663M9.99968 2.16683V1.3335M9.99968 19.6668V18.8335M16.6663 17.1668L15.833 16.3335M16.6663 3.8335L15.833 4.66683M3.33301 17.1668L4.16634 16.3335M3.33301 3.8335L4.16634 4.66683M0.833008 10.5002H1.66634M9.99968 15.5002C11.3258 15.5002 12.5975 14.9734 13.5352 14.0357C14.4729 13.098 14.9997 11.8262 14.9997 10.5002C14.9997 9.17408 14.4729 7.90231 13.5352 6.96463C12.5975 6.02695 11.3258 5.50016 9.99968 5.50016C8.67359 5.50016 7.40182 6.02695 6.46414 6.96463C5.52646 7.90231 4.99967 9.17408 4.99967 10.5002C4.99967 11.8262 5.52646 13.098 6.46414 14.0357C7.40182 14.9734 8.67359 15.5002 9.99968 15.5002Z" stroke="white" stroke-linecap="round" stroke-linejoin="round"/>
</g>
<defs>
<clipPath id="clip0_87_1099">
<rect width="20" height="20" fill="white" transform="translate(0 0.5)"/>
</clipPath>
</defs>
</svg>
