<svg width="48" height="48" viewBox="0 0 48 48" fill="none" xmlns="http://www.w3.org/2000/svg">
<rect x="47.4" y="47.4" width="46.8" height="46.8" rx="23.4" transform="rotate(-180 47.4 47.4)" stroke="white" stroke-width="1.2"/>
<g clip-path="url(#clip0_2_5862)">
<path d="M23.6464 33.3536C23.8417 33.5488 24.1583 33.5488 24.3536 33.3536L27.5355 30.1716C27.7308 29.9763 27.7308 29.6597 27.5355 29.4645C27.3403 29.2692 27.0237 29.2692 26.8284 29.4645L24 32.2929L21.1716 29.4645C20.9763 29.2692 20.6597 29.2692 20.4645 29.4645C20.2692 29.6597 20.2692 29.9763 20.4645 30.1716L23.6464 33.3536ZM23.5 15L23.5 33L24.5 33L24.5 15L23.5 15Z" fill="white"/>
</g>
<defs>
<clipPath id="clip0_2_5862">
<rect width="24" height="14.4" fill="white" transform="translate(31 12) rotate(90)"/>
</clipPath>
</defs>
</svg>
