<svg width="48" height="48" viewBox="0 0 48 48" fill="none" xmlns="http://www.w3.org/2000/svg">
<rect x="0.6" y="0.6" width="46.8" height="46.8" rx="23.4" stroke="white" stroke-width="1.2"/>
<g clip-path="url(#clip0_2_5755)">
<path d="M24.3535 14.6464C24.1583 14.4512 23.8417 14.4512 23.6464 14.6464L20.4645 17.8284C20.2692 18.0237 20.2692 18.3403 20.4645 18.5355C20.6597 18.7308 20.9763 18.7308 21.1716 18.5355L24 15.7071L26.8284 18.5355C27.0237 18.7308 27.3403 18.7308 27.5355 18.5355C27.7308 18.3403 27.7308 18.0237 27.5355 17.8284L24.3535 14.6464ZM24.5 33L24.5 15L23.5 15L23.5 33L24.5 33Z" fill="white"/>
</g>
<defs>
<clipPath id="clip0_2_5755">
<rect width="24" height="14.4" fill="white" transform="translate(17 36) rotate(-90)"/>
</clipPath>
</defs>
</svg>
