<svg>
    <symbol id="logo-black"  viewBox="0 0 97 31" xmlns="http://www.w3.org/2000/svg">
            <g clip-path="url(#clip0_2_6005)">
            <path d="M21.6592 26.2056L2.0791 17.6496V15.583L21.6592 5.86963V9.09363L5.98682 16.451L21.6592 22.9816V26.2056ZM76.2093 22.9816L91.8817 16.4923L76.2093 9.09363V5.86963L95.7894 15.583V17.6496L76.2093 26.2056V22.9816Z" fill="#367BFF"/>
            <path d="M25.5781 24.7594V8.30872C25.5781 7.4545 25.5088 6.75183 25.3702 6.20072C25.2593 5.62205 25.1346 5.13983 24.9961 4.75405C24.8575 4.36827 24.7189 4.05139 24.5803 3.80339C24.4695 3.52783 24.4141 3.26605 24.4141 3.01805C24.4141 2.38427 24.8021 2.06738 25.5781 2.06738H32.5621C34.3635 2.06738 36.0264 2.35672 37.5507 2.93539C39.075 3.4865 40.4052 4.36827 41.5415 5.58072C42.6778 6.76561 43.5647 8.28116 44.2021 10.1274C44.8395 11.9736 45.1582 14.1781 45.1582 16.7407C45.1582 19.1932 44.8395 21.3149 44.2021 23.1061C43.5647 24.8972 42.6778 26.3852 41.5415 27.57C40.4052 28.7274 39.075 29.5954 37.5507 30.174C36.0264 30.7252 34.3635 31.0007 32.5621 31.0007H25.5781C25.3563 31.0007 25.1623 30.9594 24.9961 30.8767C24.8575 30.8216 24.7189 30.7252 24.5803 30.5874C24.4695 30.4496 24.4141 30.2705 24.4141 30.05C24.4141 29.802 24.4695 29.5541 24.5803 29.3061C24.7189 29.0305 24.8575 28.6998 24.9961 28.3141C25.1346 27.9283 25.2593 27.4598 25.3702 26.9087C25.5088 26.3301 25.5781 25.6136 25.5781 24.7594ZM31.7722 29.6367H32.5621C33.0332 29.6367 33.6291 29.43 34.3496 29.0167C35.098 28.5758 35.8185 27.8594 36.5114 26.8674C37.2042 25.8754 37.8001 24.5527 38.299 22.8994C38.7978 21.2461 39.0472 19.1932 39.0472 16.7407C39.0472 14.1781 38.784 12.0425 38.2574 10.3341C37.7585 8.62561 37.1488 7.26161 36.4282 6.24205C35.7354 5.2225 35.0287 4.50605 34.3081 4.09272C33.5875 3.65183 33.0055 3.43138 32.5621 3.43138H31.7722C31.3842 3.43138 31.1763 3.88605 31.1486 4.79539C31.1209 5.67716 31.1071 6.84827 31.1071 8.30872V24.7594C31.1071 26.2198 31.1209 27.4047 31.1486 28.3141C31.1763 29.1958 31.3842 29.6367 31.7722 29.6367ZM45.5643 30.3394C45.5643 30.0363 45.7028 29.7883 45.98 29.5954C46.2571 29.4025 46.562 29.1545 46.8945 28.8514C47.2271 28.5483 47.532 28.1212 47.8091 27.57C48.114 26.9914 48.2803 26.1923 48.308 25.1727V7.89539C48.2803 6.84828 48.114 6.04916 47.8091 5.49805C47.532 4.94694 47.2271 4.51983 46.8945 4.21672C46.562 3.91361 46.2571 3.66561 45.98 3.47272C45.7028 3.27983 45.5643 3.03183 45.5643 2.72872C45.5643 2.6185 45.6058 2.50828 45.689 2.39805C45.7998 2.1776 46.0354 2.06738 46.3957 2.06738H49.6798C50.8438 2.06738 51.897 2.42561 52.8393 3.14205C53.7815 3.83094 54.6268 4.75405 55.3751 5.91139C56.1234 7.04116 56.7747 8.35005 57.329 9.83805C57.911 11.3261 58.4098 12.8692 58.8255 14.4674C59.269 16.0381 59.6431 17.5949 59.948 19.1381C60.2528 20.6812 60.5023 22.0865 60.6963 23.3541C60.918 24.6216 61.0981 25.6963 61.2367 26.5781C61.3753 27.4323 61.4861 27.9696 61.5693 28.1901L65.6433 3.01805C65.6433 2.85272 65.6987 2.68739 65.8095 2.52205C65.865 2.41183 65.962 2.31539 66.1005 2.23272C66.2668 2.12249 66.5024 2.06738 66.8073 2.06738H72.3363C73.1123 2.06738 73.5003 2.38427 73.5003 3.01805C73.5003 3.26605 73.431 3.52783 73.2924 3.80339C73.1815 4.05139 73.0568 4.36827 72.9183 4.75405C72.7797 5.13983 72.6411 5.62205 72.5025 6.20072C72.3917 6.75183 72.3363 7.4545 72.3363 8.30872V24.7594C72.3363 25.6136 72.3917 26.3301 72.5025 26.9087C72.6411 27.4598 72.7797 27.9283 72.9183 28.3141C73.0568 28.6998 73.1815 29.0305 73.2924 29.3061C73.431 29.5541 73.5003 29.802 73.5003 30.05C73.5003 30.2154 73.4587 30.3669 73.3755 30.5047C73.2924 30.6425 73.1677 30.7665 73.0014 30.8767C72.8628 30.9594 72.6411 31.0007 72.3363 31.0007H66.8073C66.0313 31.0007 65.6433 30.6838 65.6433 30.05C65.6433 29.802 65.6987 29.5541 65.8095 29.3061C65.9481 29.0305 66.0867 28.6998 66.2253 28.3141C66.3638 27.9283 66.4885 27.4598 66.5994 26.9087C66.738 26.3301 66.8073 25.6136 66.8073 24.7594V8.30872C66.8073 7.84027 66.7795 7.41316 66.7241 7.02739C66.6964 6.64161 66.6548 6.29716 66.5994 5.99405L62.6501 30.1327C62.5947 30.4358 62.4561 30.6563 62.2344 30.794C62.0127 30.9318 61.7494 31.0007 61.4445 31.0007H56.7885C56.4283 31.0007 56.1511 30.8354 55.9571 30.5047C55.7631 30.1465 55.5968 29.5954 55.4583 28.8514C55.3474 28.2727 55.195 27.3634 55.001 26.1234C54.8347 24.8558 54.6268 23.4643 54.3774 21.9487C54.1557 20.4056 53.8785 18.8212 53.546 17.1954C53.2411 15.5696 52.8808 14.0954 52.4651 12.7727C52.0771 11.4225 51.6475 10.3203 51.1764 9.46605C50.733 8.58427 50.2341 8.14339 49.6798 8.14339V25.1727C49.7353 26.1923 49.9015 26.9914 50.1787 27.57C50.4835 28.1212 50.8023 28.5483 51.1348 28.8514C51.4674 29.1545 51.7584 29.4025 52.0078 29.5954C52.285 29.7883 52.4235 30.0363 52.4235 30.3394C52.4235 30.4496 52.3958 30.5598 52.3404 30.67C52.285 30.7527 52.2018 30.8354 52.091 30.918C51.9801 30.9732 51.8138 31.0007 51.5921 31.0007H46.3957C45.8414 31.0007 45.5643 30.7803 45.5643 30.3394Z" fill="#0F0F0F"/>
            </g>
            <defs>
            <clipPath id="clip0_2_6005">
            <rect width="97" height="31" fill="white"/>
            </clipPath>
            </defs>
    </symbol>
            <symbol id="logo-white"  viewBox="0 0 97 31"  xmlns="http://www.w3.org/2000/svg">
            <g clip-path="url(#clip0_87_1082)">
            <path d="M21.6592 26.2056L2.0791 17.6496V15.583L21.6592 5.86963V9.09363L5.98682 16.451L21.6592 22.9816V26.2056ZM76.2093 22.9816L91.8817 16.4923L76.2093 9.09363V5.86963L95.7894 15.583V17.6496L76.2093 26.2056V22.9816Z" fill="#367BFF"/>
            <path d="M25.5781 24.7594V8.30872C25.5781 7.4545 25.5088 6.75183 25.3702 6.20072C25.2593 5.62205 25.1346 5.13983 24.9961 4.75405C24.8575 4.36827 24.7189 4.05139 24.5803 3.80339C24.4695 3.52783 24.4141 3.26605 24.4141 3.01805C24.4141 2.38427 24.8021 2.06738 25.5781 2.06738H32.5621C34.3635 2.06738 36.0264 2.35672 37.5507 2.93539C39.075 3.4865 40.4052 4.36827 41.5415 5.58072C42.6778 6.76561 43.5647 8.28116 44.2021 10.1274C44.8395 11.9736 45.1582 14.1781 45.1582 16.7407C45.1582 19.1932 44.8395 21.3149 44.2021 23.1061C43.5647 24.8972 42.6778 26.3852 41.5415 27.57C40.4052 28.7274 39.075 29.5954 37.5507 30.174C36.0264 30.7252 34.3635 31.0007 32.5621 31.0007H25.5781C25.3563 31.0007 25.1623 30.9594 24.9961 30.8767C24.8575 30.8216 24.7189 30.7252 24.5803 30.5874C24.4695 30.4496 24.4141 30.2705 24.4141 30.05C24.4141 29.802 24.4695 29.5541 24.5803 29.3061C24.7189 29.0305 24.8575 28.6998 24.9961 28.3141C25.1346 27.9283 25.2593 27.4598 25.3702 26.9087C25.5088 26.3301 25.5781 25.6136 25.5781 24.7594ZM31.7722 29.6367H32.5621C33.0332 29.6367 33.6291 29.43 34.3496 29.0167C35.098 28.5758 35.8185 27.8594 36.5114 26.8674C37.2042 25.8754 37.8001 24.5527 38.299 22.8994C38.7978 21.2461 39.0472 19.1932 39.0472 16.7407C39.0472 14.1781 38.784 12.0425 38.2574 10.3341C37.7585 8.62561 37.1488 7.26161 36.4282 6.24205C35.7354 5.2225 35.0287 4.50605 34.3081 4.09272C33.5875 3.65183 33.0055 3.43138 32.5621 3.43138H31.7722C31.3842 3.43138 31.1763 3.88605 31.1486 4.79539C31.1209 5.67716 31.1071 6.84827 31.1071 8.30872V24.7594C31.1071 26.2198 31.1209 27.4047 31.1486 28.3141C31.1763 29.1958 31.3842 29.6367 31.7722 29.6367ZM45.5643 30.3394C45.5643 30.0363 45.7028 29.7883 45.98 29.5954C46.2571 29.4025 46.562 29.1545 46.8945 28.8514C47.2271 28.5483 47.532 28.1212 47.8091 27.57C48.114 26.9914 48.2803 26.1923 48.308 25.1727V7.89539C48.2803 6.84828 48.114 6.04916 47.8091 5.49805C47.532 4.94694 47.2271 4.51983 46.8945 4.21672C46.562 3.91361 46.2571 3.66561 45.98 3.47272C45.7028 3.27983 45.5643 3.03183 45.5643 2.72872C45.5643 2.6185 45.6058 2.50828 45.689 2.39805C45.7998 2.1776 46.0354 2.06738 46.3957 2.06738H49.6798C50.8438 2.06738 51.897 2.42561 52.8393 3.14205C53.7815 3.83094 54.6268 4.75405 55.3751 5.91139C56.1234 7.04116 56.7747 8.35005 57.329 9.83805C57.911 11.3261 58.4098 12.8692 58.8255 14.4674C59.269 16.0381 59.6431 17.5949 59.948 19.1381C60.2528 20.6812 60.5023 22.0865 60.6963 23.3541C60.918 24.6216 61.0981 25.6963 61.2367 26.5781C61.3753 27.4323 61.4861 27.9696 61.5693 28.1901L65.6433 3.01805C65.6433 2.85272 65.6987 2.68739 65.8095 2.52205C65.865 2.41183 65.962 2.31539 66.1005 2.23272C66.2668 2.12249 66.5024 2.06738 66.8073 2.06738H72.3363C73.1123 2.06738 73.5003 2.38427 73.5003 3.01805C73.5003 3.26605 73.431 3.52783 73.2924 3.80339C73.1815 4.05139 73.0568 4.36827 72.9183 4.75405C72.7797 5.13983 72.6411 5.62205 72.5025 6.20072C72.3917 6.75183 72.3363 7.4545 72.3363 8.30872V24.7594C72.3363 25.6136 72.3917 26.3301 72.5025 26.9087C72.6411 27.4598 72.7797 27.9283 72.9183 28.3141C73.0568 28.6998 73.1815 29.0305 73.2924 29.3061C73.431 29.5541 73.5003 29.802 73.5003 30.05C73.5003 30.2154 73.4587 30.3669 73.3755 30.5047C73.2924 30.6425 73.1677 30.7665 73.0014 30.8767C72.8628 30.9594 72.6411 31.0007 72.3363 31.0007H66.8073C66.0313 31.0007 65.6433 30.6838 65.6433 30.05C65.6433 29.802 65.6987 29.5541 65.8095 29.3061C65.9481 29.0305 66.0867 28.6998 66.2253 28.3141C66.3638 27.9283 66.4885 27.4598 66.5994 26.9087C66.738 26.3301 66.8073 25.6136 66.8073 24.7594V8.30872C66.8073 7.84027 66.7795 7.41316 66.7241 7.02739C66.6964 6.64161 66.6548 6.29716 66.5994 5.99405L62.6501 30.1327C62.5947 30.4358 62.4561 30.6563 62.2344 30.794C62.0127 30.9318 61.7494 31.0007 61.4445 31.0007H56.7885C56.4283 31.0007 56.1511 30.8354 55.9571 30.5047C55.7631 30.1465 55.5968 29.5954 55.4583 28.8514C55.3474 28.2727 55.195 27.3634 55.001 26.1234C54.8347 24.8558 54.6268 23.4643 54.3774 21.9487C54.1557 20.4056 53.8785 18.8212 53.546 17.1954C53.2411 15.5696 52.8808 14.0954 52.4651 12.7727C52.0771 11.4225 51.6475 10.3203 51.1764 9.46605C50.733 8.58427 50.2341 8.14339 49.6798 8.14339V25.1727C49.7353 26.1923 49.9015 26.9914 50.1787 27.57C50.4835 28.1212 50.8023 28.5483 51.1348 28.8514C51.4674 29.1545 51.7584 29.4025 52.0078 29.5954C52.285 29.7883 52.4235 30.0363 52.4235 30.3394C52.4235 30.4496 52.3958 30.5598 52.3404 30.67C52.285 30.7527 52.2018 30.8354 52.091 30.918C51.9801 30.9732 51.8138 31.0007 51.5921 31.0007H46.3957C45.8414 31.0007 45.5643 30.7803 45.5643 30.3394Z" fill="white"/>
            </g>
            <defs>
            <clipPath id="clip0_87_1082">
            <rect width="97" height="31" fill="white"/>
            </clipPath>
            </defs>
    </symbol>
    <symbol id="sun-white" width="20" height="21" viewBox="0 0 20 21" xmlns="http://www.w3.org/2000/svg">
            <g clip-path="url(#clip0_87_1099)">
            <path d="M18.333 10.5002H19.1663M9.99968 2.16683V1.3335M9.99968 19.6668V18.8335M16.6663 17.1668L15.833 16.3335M16.6663 3.8335L15.833 4.66683M3.33301 17.1668L4.16634 16.3335M3.33301 3.8335L4.16634 4.66683M0.833008 10.5002H1.66634M9.99968 15.5002C11.3258 15.5002 12.5975 14.9734 13.5352 14.0357C14.4729 13.098 14.9997 11.8262 14.9997 10.5002C14.9997 9.17408 14.4729 7.90231 13.5352 6.96463C12.5975 6.02695 11.3258 5.50016 9.99968 5.50016C8.67359 5.50016 7.40182 6.02695 6.46414 6.96463C5.52646 7.90231 4.99967 9.17408 4.99967 10.5002C4.99967 11.8262 5.52646 13.098 6.46414 14.0357C7.40182 14.9734 8.67359 15.5002 9.99968 15.5002Z" stroke="white" stroke-linecap="white" stroke-linejoin="white"/>
            </g>
            <defs>
            <clipPath id="clip0_87_1099">
            <rect width="20" height="20" fill="white" transform="translate(0 0.5)"/>
            </clipPath>
            </defs>
    </symbol>
    <symbol id="moon-black" width="20" height="21" viewBox="0 0 20 21" xmlns="http://www.w3.org/2000/svg">
       <path d="M2.5 10.0892C2.49884 11.8743 3.10147 13.6073 4.20994 15.0066C5.31841 16.4058 6.86754 17.389 8.60555 17.7964C10.3436 18.2038 12.1682 18.0113 13.783 17.2504C15.3978 16.4894 16.7078 15.2047 17.5 13.605C10.4108 13.605 6.895 10.0883 6.895 3C5.57486 3.65506 4.46393 4.66582 3.6874 5.91836C2.91087 7.17091 2.49962 8.61544 2.5 10.0892Z" stroke="#0F0F0F" stroke-linecap="round" stroke-linejoin="round"/>
    </symbol>

    <symbol id="scroll-black"  viewBox="0 0 48 48"  xmlns="http://www.w3.org/2000/svg">
            <rect x="47.4" y="47.4" width="46.8" height="46.8" rx="23.4" transform="rotate(-180 47.4 47.4)" stroke="white" stroke-width="1.2"/>
            <g clip-path="url(#clip0_2_5862)">
            <path d="M23.6464 33.3536C23.8417 33.5488 24.1583 33.5488 24.3536 33.3536L27.5355 30.1716C27.7308 29.9763 27.7308 29.6597 27.5355 29.4645C27.3403 29.2692 27.0237 29.2692 26.8284 29.4645L24 32.2929L21.1716 29.4645C20.9763 29.2692 20.6597 29.2692 20.4645 29.4645C20.2692 29.6597 20.2692 29.9763 20.4645 30.1716L23.6464 33.3536ZM23.5 15L23.5 33L24.5 33L24.5 15L23.5 15Z" fill="white"/>
            </g>
            <defs>
            <clipPath id="clip0_2_5862">
            <rect width="24" height="14.4" fill="white" transform="translate(31 12) rotate(90)"/>
            </clipPath>
            </defs>
    </symbol>
    <symbol id="scroll-white" viewBox="0 0 48 48"  xmlns="http://www.w3.org/2000/svg" fill='none'>
            <rect x="47.4" y="47.4" width="46.8" height="46.8" rx="23.4" transform="rotate(-180 47.4 47.4)" stroke="#0F0F0F" stroke-width="1.2"/>
            <g clip-path="url(#clip0_2_5709)">
            <path d="M23.6464 33.3536C23.8417 33.5488 24.1583 33.5488 24.3536 33.3536L27.5355 30.1716C27.7308 29.9763 27.7308 29.6597 27.5355 29.4645C27.3403 29.2692 27.0237 29.2692 26.8284 29.4645L24 32.2929L21.1716 29.4645C20.9763 29.2692 20.6597 29.2692 20.4645 29.4645C20.2692 29.6597 20.2692 29.9763 20.4645 30.1716L23.6464 33.3536ZM23.5 15L23.5 33L24.5 33L24.5 15L23.5 15Z" fill="#0F0F0F"/>
            </g>
            <defs>
            <clipPath id="clip0_2_5709">
            <rect width="24" height="14.4" fill="white" transform="translate(31 12) rotate(90)"/>
            </clipPath>
            </defs>
    </symbol>
    <symbol id="icon-play" viewBox="0 0 15 20"  xmlns="http://www.w3.org/2000/svg">
        <path d="M15 10L-1.01012e-06 0.47372L-1.84293e-06 19.5263L15 10Z" />
    </symbol>
    <symbol id="icon-pause" viewBox="0 0 15 19"  xmlns="http://www.w3.org/2000/svg">
  <rect width="5" height="19" />
  <rect x="10" width="5" height="19" />
    </symbol>
    <symbol id="icon-next" viewBox="0 0 16 14"  xmlns="http://www.w3.org/2000/svg">
        <path d="M15 2V12.5" stroke="white"/>
        <path d="M13 7L3.25 0.937823L3.25 13.0622L13 7Z" fill="#D9D9D9"/>
    </symbol>
    <symbol id="icon-repeat" viewBox="0 0 20 18"  xmlns="http://www.w3.org/2000/svg">
        <path d="M10 3L5 0.113249V5.88675L10 3ZM7 14.5C3.96243 14.5 1.5 12.0376 1.5 9H0.5C0.5 12.5899 3.41015 15.5 7 15.5V14.5ZM1.5 9C1.5 5.96243 3.96243 3.5 7 3.5V2.5C3.41015 2.5 0.5 5.41015 0.5 9H1.5Z" fill="#696969"/>
        <path d="M10 15L15 17.8868V12.1132L10 15ZM13 3.5C16.0376 3.5 18.5 5.96243 18.5 9H19.5C19.5 5.41015 16.5899 2.5 13 2.5V3.5ZM18.5 9C18.5 12.0376 16.0376 14.5 13 14.5V15.5C16.5899 15.5 19.5 12.5899 19.5 9H18.5Z" fill="#696969"/>
    </symbol>
    <symbol id="icon-repeatA" viewBox="0 0 20 18"  xmlns="http://www.w3.org/2000/svg">
        <path d="M10.0005 3.70312L5.00049 0.816374V6.58988L10.0005 3.70312ZM7.00049 15.2031C3.96292 15.2031 1.50049 12.7407 1.50049 9.70312H0.500488C0.500488 13.293 3.41064 16.2031 7.00049 16.2031V15.2031ZM1.50049 9.70312C1.50049 6.66556 3.96292 4.20312 7.00049 4.20312V3.20312C3.41064 3.20312 0.500488 6.11327 0.500488 9.70312H1.50049Z" stroke="white" fill="white"/>
        <path d="M10.0005 15.7031L15.0005 18.5899V12.8164L10.0005 15.7031ZM13.0005 4.20312C16.0381 4.20312 18.5005 6.66556 18.5005 9.70312H19.5005C19.5005 6.11327 16.5903 3.20312 13.0005 3.20312V4.20312ZM18.5005 9.70312C18.5005 12.7407 16.0381 15.2031 13.0005 15.2031V16.2031C16.5903 16.2031 19.5005 13.293 19.5005 9.70312H18.5005Z" stroke="white" fill="white"/>
    </symbol>
    <symbol id="icon-shuffle" viewBox="0 0 20 18"  xmlns="http://www.w3.org/2000/svg">
        <path d="M19.5 15L14.5 12.1132V17.8868L19.5 15ZM10.1632 12.0833L9.70863 12.2916L10.1632 12.0833ZM7.33683 5.91673L6.8823 6.12505L7.33683 5.91673ZM0.5 3.5H2.79151V2.5H0.5V3.5ZM6.8823 6.12505L9.70863 12.2916L10.6177 11.8749L7.79137 5.7084L6.8823 6.12505ZM14.7085 15.5H15V14.5H14.7085V15.5ZM9.70863 12.2916C10.6047 14.2466 12.5579 15.5 14.7085 15.5V14.5C12.949 14.5 11.3508 13.4745 10.6177 11.8749L9.70863 12.2916ZM2.79151 3.5C4.55105 3.5 6.14918 4.52552 6.8823 6.12505L7.79137 5.7084C6.89533 3.75341 4.94205 2.5 2.79151 2.5V3.5Z" fill="#696969"/>
        <path d="M19.5 3L14.5 5.88675V0.113249L19.5 3ZM10.1632 5.91673L9.70863 5.7084L10.1632 5.91673ZM7.33683 12.0833L6.8823 11.8749L7.33683 12.0833ZM0.5 14.5H2.79151V15.5H0.5V14.5ZM6.8823 11.8749L9.70863 5.7084L10.6177 6.12505L7.79137 12.2916L6.8823 11.8749ZM14.7085 2.5H15V3.5H14.7085V2.5ZM9.70863 5.7084C10.6047 3.75341 12.5579 2.5 14.7085 2.5V3.5C12.949 3.5 11.3508 4.52552 10.6177 6.12505L9.70863 5.7084ZM2.79151 14.5C4.55105 14.5 6.14918 13.4745 6.8823 11.8749L7.79137 12.2916C6.89533 14.2466 4.94205 15.5 2.79151 15.5V14.5Z" fill="#696969"/>
    </symbol>
    <symbol id="icon-shuffle-active" viewBox="0 0 20 18"  xmlns="http://www.w3.org/2000/svg">
        <path d="M19.0005 15.7031L14.0005 12.8164V18.5899L19.0005 15.7031ZM9.66366 12.7864L9.20912 12.9947L9.66366 12.7864ZM6.83732 6.61985L6.38279 6.82818L6.83732 6.61985ZM0.000488281 4.20312H2.292V3.20312H0.000488281V4.20312ZM6.38279 6.82818L9.20912 12.9947L10.1182 12.5781L7.29185 6.41152L6.38279 6.82818ZM14.209 16.2031H14.5005V15.2031H14.209V16.2031ZM9.20912 12.9947C10.1052 14.9497 12.0584 16.2031 14.209 16.2031V15.2031C12.4494 15.2031 10.8513 14.1776 10.1182 12.5781L9.20912 12.9947ZM2.292 4.20312C4.05153 4.20312 5.64967 5.22864 6.38279 6.82818L7.29185 6.41152C6.39582 4.45654 4.44254 3.20312 2.292 3.20312V4.20312Z" fill="white" stroke="white"/>
        <path d="M19.0005 3.70312L14.0005 6.58988V0.816374L19.0005 3.70312ZM9.66366 6.61985L9.20912 6.41152L9.66366 6.61985ZM6.83732 12.7864L6.38279 12.5781L6.83732 12.7864ZM0.000488281 15.2031H2.292V16.2031H0.000488281V15.2031ZM6.38279 12.5781L9.20912 6.41152L10.1182 6.82818L7.29185 12.9947L6.38279 12.5781ZM14.209 3.20312H14.5005V4.20312H14.209V3.20312ZM9.20912 6.41152C10.1052 4.45654 12.0584 3.20312 14.209 3.20312V4.20312C12.4494 4.20312 10.8513 5.22864 10.1182 6.82818L9.20912 6.41152ZM2.292 15.2031C4.05153 15.2031 5.64967 14.1776 6.38279 12.5781L7.29185 12.9947C6.39582 14.9497 4.44254 16.2031 2.292 16.2031V15.2031Z" fill="white" stroke="white"/>
    </symbol>
    <symbol id='logout' width="40" height="40" viewBox="0 0 40 40" fill="none" xmlns="http://www.w3.org/2000/svg">
        <path d="M25.6711 16.046V14.7419C25.6711 13.2276 24.4435 12 22.9292 12H16.7419C15.2276 12 14 13.2276 14 14.7419V26.0645C14 27.5788 15.2276 28.8065 16.7419 28.8065H22.9292C24.4435 28.8065 25.6711 27.5788 25.6711 26.0645V24.6048M18.3572 20.3254H33.2963M33.2963 20.3254L30.1062 23.5155M33.2963 20.3254L30.1062 17.1353" stroke="white" stroke-linecap="round" stroke-linejoin="round"/>
        <circle cx="20" cy="20" r="19.5" stroke="white"/>
    </symbol> 
    <symbol ></symbol>
</svg>