<svg width="32" height="32" viewBox="0 0 32 32" fill="none" xmlns="http://www.w3.org/2000/svg">
<path d="M16.0003 29.3334C23.3641 29.3334 29.3337 23.3638 29.3337 16.0001C29.3337 8.63628 23.3641 2.66675 16.0003 2.66675C8.63653 2.66675 2.66699 8.63628 2.66699 16.0001C2.66699 23.3638 8.63653 29.3334 16.0003 29.3334Z" stroke="#0F0F0F" stroke-width="1.5" stroke-linecap="round" stroke-linejoin="round"/>
<path d="M19.1111 25.3333V22.8493C19.1445 22.4367 19.0873 22.0217 18.9431 21.6323C18.7991 21.2428 18.5715 20.8876 18.2757 20.5904C21.0667 20.2875 24.0001 19.2575 24.0001 14.5319C23.9998 13.3234 23.5225 12.1613 22.6667 11.2861C23.0719 10.2289 23.0433 9.06037 22.5867 8.02319C22.5867 8.02319 21.5378 7.72027 19.1111 9.30415C17.0738 8.76651 14.9263 8.76651 12.889 9.30415C10.4623 7.72027 9.4134 8.02319 9.4134 8.02319C8.95684 9.06037 8.9282 10.2289 9.3334 11.2861C8.4713 12.1678 7.99343 13.3404 8.00007 14.5577C8.00007 19.2488 10.9334 20.2788 13.7245 20.6163C13.4321 20.9105 13.2065 21.2615 13.0626 21.6463C12.9186 22.0309 12.8595 22.4408 12.889 22.8493V25.3333" stroke="#0F0F0F" stroke-width="1.5" stroke-linecap="round" stroke-linejoin="round"/>
<path d="M12.8892 23.6024C10.2226 24.4447 8.00033 23.6024 6.66699 21.0059" stroke="#0F0F0F" stroke-width="1.5" stroke-linecap="round" stroke-linejoin="round"/>
</svg>
