<svg width="97" height="50" viewBox="0 0 97 31" fill="none" xmlns="http://www.w3.org/2000/svg">
<g clip-path="url(#clip0_87_1082)">
<path d="M21.6592 26.2056L2.0791 17.6496V15.583L21.6592 5.86963V9.09363L5.98682 16.451L21.6592 22.9816V26.2056ZM76.2093 22.9816L91.8817 16.4923L76.2093 9.09363V5.86963L95.7894 15.583V17.6496L76.2093 26.2056V22.9816Z" fill="#367BFF"/>
<path d="M25.5781 24.7594V8.30872C25.5781 7.4545 25.5088 6.75183 25.3702 6.20072C25.2593 5.62205 25.1346 5.13983 24.9961 4.75405C24.8575 4.36827 24.7189 4.05139 24.5803 3.80339C24.4695 3.52783 24.4141 3.26605 24.4141 3.01805C24.4141 2.38427 24.8021 2.06738 25.5781 2.06738H32.5621C34.3635 2.06738 36.0264 2.35672 37.5507 2.93539C39.075 3.4865 40.4052 4.36827 41.5415 5.58072C42.6778 6.76561 43.5647 8.28116 44.2021 10.1274C44.8395 11.9736 45.1582 14.1781 45.1582 16.7407C45.1582 19.1932 44.8395 21.3149 44.2021 23.1061C43.5647 24.8972 42.6778 26.3852 41.5415 27.57C40.4052 28.7274 39.075 29.5954 37.5507 30.174C36.0264 30.7252 34.3635 31.0007 32.5621 31.0007H25.5781C25.3563 31.0007 25.1623 30.9594 24.9961 30.8767C24.8575 30.8216 24.7189 30.7252 24.5803 30.5874C24.4695 30.4496 24.4141 30.2705 24.4141 30.05C24.4141 29.802 24.4695 29.5541 24.5803 29.3061C24.7189 29.0305 24.8575 28.6998 24.9961 28.3141C25.1346 27.9283 25.2593 27.4598 25.3702 26.9087C25.5088 26.3301 25.5781 25.6136 25.5781 24.7594ZM31.7722 29.6367H32.5621C33.0332 29.6367 33.6291 29.43 34.3496 29.0167C35.098 28.5758 35.8185 27.8594 36.5114 26.8674C37.2042 25.8754 37.8001 24.5527 38.299 22.8994C38.7978 21.2461 39.0472 19.1932 39.0472 16.7407C39.0472 14.1781 38.784 12.0425 38.2574 10.3341C37.7585 8.62561 37.1488 7.26161 36.4282 6.24205C35.7354 5.2225 35.0287 4.50605 34.3081 4.09272C33.5875 3.65183 33.0055 3.43138 32.5621 3.43138H31.7722C31.3842 3.43138 31.1763 3.88605 31.1486 4.79539C31.1209 5.67716 31.1071 6.84827 31.1071 8.30872V24.7594C31.1071 26.2198 31.1209 27.4047 31.1486 28.3141C31.1763 29.1958 31.3842 29.6367 31.7722 29.6367ZM45.5643 30.3394C45.5643 30.0363 45.7028 29.7883 45.98 29.5954C46.2571 29.4025 46.562 29.1545 46.8945 28.8514C47.2271 28.5483 47.532 28.1212 47.8091 27.57C48.114 26.9914 48.2803 26.1923 48.308 25.1727V7.89539C48.2803 6.84828 48.114 6.04916 47.8091 5.49805C47.532 4.94694 47.2271 4.51983 46.8945 4.21672C46.562 3.91361 46.2571 3.66561 45.98 3.47272C45.7028 3.27983 45.5643 3.03183 45.5643 2.72872C45.5643 2.6185 45.6058 2.50828 45.689 2.39805C45.7998 2.1776 46.0354 2.06738 46.3957 2.06738H49.6798C50.8438 2.06738 51.897 2.42561 52.8393 3.14205C53.7815 3.83094 54.6268 4.75405 55.3751 5.91139C56.1234 7.04116 56.7747 8.35005 57.329 9.83805C57.911 11.3261 58.4098 12.8692 58.8255 14.4674C59.269 16.0381 59.6431 17.5949 59.948 19.1381C60.2528 20.6812 60.5023 22.0865 60.6963 23.3541C60.918 24.6216 61.0981 25.6963 61.2367 26.5781C61.3753 27.4323 61.4861 27.9696 61.5693 28.1901L65.6433 3.01805C65.6433 2.85272 65.6987 2.68739 65.8095 2.52205C65.865 2.41183 65.962 2.31539 66.1005 2.23272C66.2668 2.12249 66.5024 2.06738 66.8073 2.06738H72.3363C73.1123 2.06738 73.5003 2.38427 73.5003 3.01805C73.5003 3.26605 73.431 3.52783 73.2924 3.80339C73.1815 4.05139 73.0568 4.36827 72.9183 4.75405C72.7797 5.13983 72.6411 5.62205 72.5025 6.20072C72.3917 6.75183 72.3363 7.4545 72.3363 8.30872V24.7594C72.3363 25.6136 72.3917 26.3301 72.5025 26.9087C72.6411 27.4598 72.7797 27.9283 72.9183 28.3141C73.0568 28.6998 73.1815 29.0305 73.2924 29.3061C73.431 29.5541 73.5003 29.802 73.5003 30.05C73.5003 30.2154 73.4587 30.3669 73.3755 30.5047C73.2924 30.6425 73.1677 30.7665 73.0014 30.8767C72.8628 30.9594 72.6411 31.0007 72.3363 31.0007H66.8073C66.0313 31.0007 65.6433 30.6838 65.6433 30.05C65.6433 29.802 65.6987 29.5541 65.8095 29.3061C65.9481 29.0305 66.0867 28.6998 66.2253 28.3141C66.3638 27.9283 66.4885 27.4598 66.5994 26.9087C66.738 26.3301 66.8073 25.6136 66.8073 24.7594V8.30872C66.8073 7.84027 66.7795 7.41316 66.7241 7.02739C66.6964 6.64161 66.6548 6.29716 66.5994 5.99405L62.6501 30.1327C62.5947 30.4358 62.4561 30.6563 62.2344 30.794C62.0127 30.9318 61.7494 31.0007 61.4445 31.0007H56.7885C56.4283 31.0007 56.1511 30.8354 55.9571 30.5047C55.7631 30.1465 55.5968 29.5954 55.4583 28.8514C55.3474 28.2727 55.195 27.3634 55.001 26.1234C54.8347 24.8558 54.6268 23.4643 54.3774 21.9487C54.1557 20.4056 53.8785 18.8212 53.546 17.1954C53.2411 15.5696 52.8808 14.0954 52.4651 12.7727C52.0771 11.4225 51.6475 10.3203 51.1764 9.46605C50.733 8.58427 50.2341 8.14339 49.6798 8.14339V25.1727C49.7353 26.1923 49.9015 26.9914 50.1787 27.57C50.4835 28.1212 50.8023 28.5483 51.1348 28.8514C51.4674 29.1545 51.7584 29.4025 52.0078 29.5954C52.285 29.7883 52.4235 30.0363 52.4235 30.3394C52.4235 30.4496 52.3958 30.5598 52.3404 30.67C52.285 30.7527 52.2018 30.8354 52.091 30.918C51.9801 30.9732 51.8138 31.0007 51.5921 31.0007H46.3957C45.8414 31.0007 45.5643 30.7803 45.5643 30.3394Z" fill="white"/>
</g>
<defs>
<clipPath id="clip0_87_1082">
<rect width="97" height="31" fill="white"/>
</clipPath>
</defs>
</svg>
