<svg width="48" height="48" viewBox="0 0 48 48" fill="none" xmlns="http://www.w3.org/2000/svg">
<rect x="0.6" y="47.4" width="46.8" height="46.8" rx="23.4" transform="rotate(-90 0.6 47.4)" stroke="black" stroke-width="1.2"/>
<path d="M14.6464 23.646C14.4512 23.8412 14.4512 24.1578 14.6464 24.3531L17.8284 27.535C18.0237 27.7303 18.3403 27.7303 18.5355 27.535C18.7308 27.3398 18.7308 27.0232 18.5355 26.8279L15.7071 23.9995L18.5355 21.1711C18.7308 20.9758 18.7308 20.6592 18.5355 20.464C18.3403 20.2687 18.0237 20.2687 17.8284 20.464L14.6464 23.646ZM33 23.4995L15 23.4995L15 24.4995L33 24.4995L33 23.4995Z" fill="black"/>
</svg>
